<svg width="247" height="70" viewBox="0 0 247 70" fill="none" xmlns="http://www.w3.org/2000/svg">
<path d="M71.3861 35.0253C71.4156 54.2395 55.3874 69.9832 35.7868 70C16.0768 70.0168 -0.067153 54.2248 0.000210049 35.0043C0.0675731 15.7838 16.0221 0.061174 35.6226 0.000176627C55.28 -0.0608208 71.3566 15.6849 71.3861 35.0253ZM32.8965 40.9841C32.7871 40.3531 32.7576 39.7095 32.5555 39.1143C31.0041 34.5058 28.485 31.2225 23.7085 30.0193C20.0218 29.6449 20.0218 29.6723 20.0218 26.614C20.0313 26.4332 20.0313 26.2521 20.0218 26.0713C19.906 24.9986 19.6589 24.6398 21.5859 24.7778C24.8481 25.0114 27.8628 26.1101 30.5704 27.9433C31.2588 28.4018 31.9261 28.8919 32.9976 29.6449C32.7871 28.4544 32.7702 27.6804 32.5218 26.9821C30.922 22.4851 27.7664 19.5867 23.0489 18.4088C20.0386 17.6684 20.0218 17.7105 20.0218 14.6816C20.0218 14.5007 20.0218 14.3177 20.0218 14.139C19.9123 13.0662 20.4617 12.7844 21.4638 12.858C24.9764 13.1031 28.3464 14.3435 31.1788 16.4337C31.644 16.7724 32.1219 17.09 32.766 17.5359V6.68886C19.7313 5.99265 6.3597 20.6741 6.45233 35.4165C6.54916 50.0181 19.9944 64.607 32.7997 63.7846C32.8271 63.2251 32.8797 62.6424 32.8818 62.0577C32.8818 59.2771 33.0923 56.4817 32.8165 53.7263C32.6313 51.8059 32.1387 49.7657 31.2019 48.0935C30.5433 46.9214 29.6955 45.8661 28.6927 44.97C28.6927 44.97 26.0213 42.5806 21.5859 41.815C16.4726 40.9379 9.40367 43.6596 3.3431 49.4901C2.93892 48.5562 2.53895 47.5487 2.16003 46.4676C1.78112 45.3865 1.47588 44.4021 1.21274 43.443C3.01681 42.1136 14.7885 33.7002 26.8528 37.7639C29.0274 38.506 31.0681 39.5933 32.8965 40.9841ZM71.0998 40.8916C71.0451 41.2681 70.9672 41.7329 70.8619 42.2861C70.6788 43.2389 70.4935 43.9835 70.3883 44.379C70.2683 44.8417 70.1125 45.3907 69.9146 46.0091C68.5999 45.0588 67.202 44.2288 65.7381 43.5292C62.3716 41.9302 58.7144 41.0328 54.9895 40.8916C52.9103 40.701 50.8141 40.9379 48.83 41.5878C44.4093 43.0938 40.1065 47.0397 39.1466 51.7533C39.0413 52.2645 39.0539 55.0514 39.0181 60.6274C39.0181 61.6791 39.0181 62.7476 39.0181 64.0748C49.2826 62.6382 56.9367 57.8447 61.69 49.223C62.2079 48.2821 62.6745 47.3419 63.0899 46.4024C67.2475 36.9709 66.1949 27.5689 60.0649 18.699C55.1327 11.5624 48.0448 7.5891 39.1739 6.45539V17.6263C42.1863 15.0623 45.3629 13.5563 48.9689 12.9821C51.8256 12.5278 51.7582 12.5888 51.9013 15.3989C52.0024 17.3403 51.4087 18.0302 49.3752 18.3688C44.4219 19.1933 41.138 22.2117 39.416 26.8264C39.1424 27.5605 39.1234 28.3871 38.995 29.1696C42.9442 26.4794 46.967 24.7294 51.8571 24.7778C51.8571 25.9409 51.775 26.7865 51.874 27.6131C51.9013 29.1696 52.0581 29.3399 50.2372 29.6449C44.9976 30.5262 40.9338 34.2197 39.2876 39.211C39.1024 39.7747 39.1234 40.4036 38.9929 41.4742C41.4611 39.523 44.2697 38.0454 47.2764 37.1161C58.7555 33.6119 69.0137 39.6106 71.0998 40.8916Z" fill="white"/>
<path d="M85.0935 44.0986C84.4725 44.0986 83.9956 43.8325 83.663 43.3002C83.3303 42.7679 83.297 42.2024 83.5632 41.6036L92.9113 19.2812C93.244 18.5049 93.7873 18.1168 94.5414 18.1168C95.3398 18.1168 95.8832 18.5049 96.1715 19.2812L105.553 41.6701C105.797 42.2911 105.752 42.8566 105.42 43.3667C105.109 43.8546 104.632 44.0986 103.989 44.0986C103.657 44.0986 103.335 44.0099 103.025 43.8325C102.736 43.6329 102.526 43.3667 102.392 43.034L94.1422 22.5414H95.0737L86.6903 43.034C86.535 43.3889 86.3022 43.655 85.9917 43.8325C85.7034 44.0099 85.404 44.0986 85.0935 44.0986ZM86.8566 38.3766L88.1873 35.5156H101.228L102.559 38.3766H86.8566Z" fill="white"/>
<path d="M116.118 44.2317C114.455 44.2317 112.98 43.8436 111.694 43.0673C110.43 42.2689 109.432 41.1822 108.7 39.8071C107.968 38.4099 107.602 36.8131 107.602 35.0166C107.602 33.198 107.99 31.6012 108.766 30.2261C109.565 28.8289 110.651 27.7422 112.026 26.9659C113.402 26.1675 114.987 25.7683 116.784 25.7683C118.558 25.7683 120.133 26.1675 121.508 26.9659C122.883 27.7422 123.958 28.8289 124.735 30.2261C125.533 31.6012 125.932 33.198 125.932 35.0166H123.969C123.969 36.8131 123.626 38.4099 122.938 39.8071C122.273 41.1822 121.352 42.2689 120.177 43.0673C119.002 43.8436 117.649 44.2317 116.118 44.2317ZM116.717 51.6503C115.143 51.6503 113.668 51.3398 112.293 50.7188C110.918 50.0978 109.753 49.1885 108.8 47.9909C108.511 47.6139 108.4 47.2257 108.467 46.8265C108.556 46.4273 108.777 46.1057 109.132 45.8618C109.531 45.5956 109.942 45.5069 110.363 45.5956C110.807 45.6843 111.162 45.9061 111.428 46.261C112.026 47.015 112.781 47.6028 113.69 48.0241C114.599 48.4455 115.63 48.6562 116.784 48.6562C117.848 48.6562 118.824 48.4012 119.711 47.8911C120.621 47.381 121.341 46.6269 121.874 45.6289C122.406 44.6309 122.672 43.4111 122.672 41.9695V37.2455L123.77 34.318L125.932 35.0166V42.2024C125.932 43.9544 125.544 45.5402 124.768 46.9596C123.992 48.4012 122.905 49.5434 121.508 50.3861C120.133 51.2289 118.536 51.6503 116.717 51.6503ZM116.784 41.2376C117.937 41.2376 118.957 40.9715 119.844 40.4392C120.731 39.9069 121.419 39.175 121.907 38.2436C122.417 37.3121 122.672 36.2364 122.672 35.0166C122.672 33.7968 122.417 32.7212 121.907 31.7897C121.419 30.836 120.731 30.0931 119.844 29.5608C118.957 29.0285 117.937 28.7624 116.784 28.7624C115.63 28.7624 114.61 29.0285 113.723 29.5608C112.836 30.0931 112.137 30.836 111.627 31.7897C111.117 32.7212 110.862 33.7968 110.862 35.0166C110.862 36.2364 111.117 37.3121 111.627 38.2436C112.137 39.175 112.836 39.9069 113.723 40.4392C114.61 40.9715 115.63 41.2376 116.784 41.2376Z" fill="white"/>
<path d="M132.612 32.7212C132.612 31.3905 132.934 30.204 133.577 29.1616C134.243 28.097 135.13 27.2542 136.239 26.6333C137.348 26.0123 138.567 25.7018 139.898 25.7018C141.229 25.7018 142.216 25.9236 142.859 26.3671C143.524 26.7885 143.779 27.2986 143.624 27.8974C143.557 28.2079 143.424 28.4519 143.225 28.6293C143.047 28.7845 142.837 28.8843 142.593 28.9287C142.349 28.9731 142.083 28.962 141.794 28.8954C140.375 28.6071 139.1 28.5849 137.969 28.8289C136.837 29.0729 135.939 29.5275 135.274 30.1929C134.631 30.8582 134.309 31.701 134.309 32.7212H132.612ZM132.646 44.0986C132.113 44.0986 131.703 43.9655 131.415 43.6994C131.127 43.4111 130.982 42.9897 130.982 42.4352V27.5647C130.982 27.0325 131.127 26.6222 131.415 26.3339C131.703 26.0455 132.113 25.9014 132.646 25.9014C133.2 25.9014 133.61 26.0455 133.877 26.3339C134.165 26.6 134.309 27.0103 134.309 27.5647V42.4352C134.309 42.9675 134.165 43.3778 133.877 43.6661C133.61 43.9544 133.2 44.0986 132.646 44.0986Z" fill="white"/>
<path d="M154.08 44.2317C152.283 44.2317 150.697 43.8436 149.322 43.0673C147.947 42.2689 146.86 41.1822 146.062 39.8071C145.286 38.4099 144.898 36.8131 144.898 35.0166C144.898 33.198 145.286 31.6012 146.062 30.2261C146.86 28.8289 147.947 27.7422 149.322 26.9659C150.697 26.1675 152.283 25.7683 154.08 25.7683C155.854 25.7683 157.428 26.1675 158.803 26.9659C160.179 27.7422 161.254 28.8289 162.03 30.2261C162.829 31.6012 163.228 33.198 163.228 35.0166C163.228 36.8131 162.84 38.4099 162.064 39.8071C161.287 41.1822 160.212 42.2689 158.837 43.0673C157.462 43.8436 155.876 44.2317 154.08 44.2317ZM154.08 41.2376C155.233 41.2376 156.253 40.9715 157.14 40.4392C158.027 39.9069 158.715 39.175 159.203 38.2436C159.713 37.3121 159.968 36.2364 159.968 35.0166C159.968 33.7968 159.713 32.7212 159.203 31.7897C158.715 30.836 158.027 30.0931 157.14 29.5608C156.253 29.0285 155.233 28.7624 154.08 28.7624C152.926 28.7624 151.906 29.0285 151.019 29.5608C150.132 30.0931 149.433 30.836 148.923 31.7897C148.413 32.7212 148.158 33.7968 148.158 35.0166C148.158 36.2364 148.413 37.3121 148.923 38.2436C149.433 39.175 150.132 39.9069 151.019 40.4392C151.906 40.9715 152.926 41.2376 154.08 41.2376Z" fill="white"/>
<path d="M170.341 44.0986C169.853 44.0986 169.443 43.9323 169.11 43.5996C168.777 43.2669 168.611 42.8566 168.611 42.3687V19.8467C168.611 19.3366 168.777 18.9263 169.11 18.6158C169.443 18.2832 169.853 18.1168 170.341 18.1168C170.851 18.1168 171.261 18.2832 171.572 18.6158C171.904 18.9263 172.071 19.3366 172.071 19.8467V29.3944H187.507V19.8467C187.507 19.3366 187.673 18.9263 188.006 18.6158C188.338 18.2832 188.749 18.1168 189.237 18.1168C189.747 18.1168 190.157 18.2832 190.467 18.6158C190.778 18.9263 190.933 19.3366 190.933 19.8467V42.3687C190.933 42.8566 190.778 43.2669 190.467 43.5996C190.157 43.9323 189.747 44.0986 189.237 44.0986C188.749 44.0986 188.338 43.9323 188.006 43.5996C187.673 43.2669 187.507 42.8566 187.507 42.3687V32.455H172.071V42.3687C172.071 42.8566 171.904 43.2669 171.572 43.5996C171.261 43.9323 170.851 44.0986 170.341 44.0986Z" fill="white"/>
<path d="M205.807 44.2317C203.966 44.2317 202.325 43.8436 200.883 43.0673C199.464 42.2689 198.344 41.1822 197.523 39.8071C196.725 38.4099 196.326 36.8131 196.326 35.0166C196.326 33.198 196.703 31.6012 197.457 30.2261C198.233 28.8289 199.298 27.7422 200.65 26.9659C202.003 26.1675 203.556 25.7683 205.308 25.7683C207.038 25.7683 208.524 26.1564 209.766 26.9327C211.008 27.6867 211.95 28.7402 212.593 30.0931C213.259 31.4238 213.591 32.9651 213.591 34.7172C213.591 35.1386 213.447 35.4935 213.159 35.7818C212.871 36.0479 212.505 36.181 212.061 36.181H198.654V33.5196H211.961L210.597 34.4511C210.575 33.3422 210.353 32.3552 209.932 31.4903C209.511 30.6032 208.912 29.9045 208.136 29.3944C207.359 28.8843 206.417 28.6293 205.308 28.6293C204.044 28.6293 202.957 28.9065 202.048 29.461C201.16 30.0154 200.484 30.7806 200.018 31.7564C199.553 32.7101 199.32 33.7968 199.32 35.0166C199.32 36.2364 199.597 37.3232 200.151 38.2768C200.706 39.2305 201.471 39.9845 202.447 40.539C203.423 41.0935 204.543 41.3707 205.807 41.3707C206.494 41.3707 207.193 41.2487 207.903 41.0047C208.635 40.7386 209.222 40.4392 209.666 40.1065C209.999 39.8626 210.353 39.7406 210.73 39.7406C211.13 39.7184 211.473 39.8293 211.762 40.0733C212.139 40.4059 212.338 40.7719 212.36 41.1711C212.383 41.5703 212.205 41.914 211.828 42.2024C211.074 42.8012 210.132 43.2891 209 43.6661C207.892 44.0432 206.827 44.2317 205.807 44.2317Z" fill="white"/>
<path d="M222.244 44.0986C221.268 44.0986 220.403 43.8325 219.649 43.3002C218.895 42.7679 218.307 42.0471 217.886 41.1378C217.465 40.2063 217.254 39.1418 217.254 37.9442V19.7802C217.254 19.2923 217.409 18.8931 217.72 18.5826C218.03 18.2721 218.429 18.1168 218.917 18.1168C219.405 18.1168 219.804 18.2721 220.115 18.5826C220.425 18.8931 220.581 19.2923 220.581 19.7802V37.9442C220.581 38.7647 220.736 39.4412 221.046 39.9735C221.357 40.5057 221.756 40.7719 222.244 40.7719H223.076C223.519 40.7719 223.874 40.9271 224.14 41.2376C224.429 41.5481 224.573 41.9473 224.573 42.4352C224.573 42.9232 224.362 43.3224 223.941 43.6329C223.519 43.9434 222.976 44.0986 222.311 44.0986H222.244Z" fill="white"/>
<path d="M229.59 51.8832C229.102 51.8832 228.691 51.7168 228.359 51.3841C228.048 51.0737 227.893 50.6744 227.893 50.1865V35.0166C227.915 33.2645 228.325 31.6899 229.124 30.2927C229.922 28.8954 231.009 27.7976 232.384 26.9992C233.759 26.1786 235.312 25.7683 237.041 25.7683C238.794 25.7683 240.357 26.1786 241.732 26.9992C243.107 27.7976 244.194 28.8954 244.992 30.2927C245.813 31.6899 246.223 33.2645 246.223 35.0166C246.223 36.7687 245.846 38.3434 245.092 39.7406C244.36 41.1156 243.351 42.2135 242.065 43.034C240.778 43.8325 239.326 44.2317 237.707 44.2317C236.398 44.2317 235.19 43.9655 234.081 43.4333C232.994 42.8788 232.062 42.1358 231.286 41.2043V50.1865C231.286 50.6744 231.131 51.0737 230.82 51.3841C230.51 51.7168 230.1 51.8832 229.59 51.8832ZM237.041 41.2376C238.173 41.2376 239.182 40.9715 240.069 40.4392C240.956 39.8847 241.655 39.1418 242.165 38.2103C242.697 37.2566 242.963 36.1921 242.963 35.0166C242.963 33.819 242.697 32.7544 242.165 31.823C241.655 30.8693 240.956 30.1263 240.069 29.594C239.182 29.0396 238.173 28.7624 237.041 28.7624C235.933 28.7624 234.923 29.0396 234.014 29.594C233.127 30.1263 232.428 30.8693 231.918 31.823C231.408 32.7544 231.153 33.819 231.153 35.0166C231.153 36.1921 231.408 37.2566 231.918 38.2103C232.428 39.1418 233.127 39.8847 234.014 40.4392C234.923 40.9715 235.933 41.2376 237.041 41.2376Z" fill="white"/>
</svg>
